<svg xmlns="http://www.w3.org/2000/svg" viewBox="0 0 180 180">
  <rect width="180" height="180" rx="40" fill="#0B0B0D"/>
  <path d="M124 58c-6.7-9.6-18.8-15.5-33.8-15.5-21 0-35 11.2-35 28 0 15.7 11.8 23.5 32.6 27.2l10.1 1.7c12.4 2 17.7 5.4 17.7 12.1 0 7.6-7.6 12.4-19.7 12.4-13.2 0-21.6-5-27-14.4l-16.6 9.6C58.3 134.3 73.5 142 93.7 142c22.4 0 37.6-11.2 37.6-29.2 0-16-11.2-23.6-32.6-27.2l-10.1-1.7c-12.4-2-17.7-5-17.7-11.8 0-7.3 7-11.8 18.2-11.8 11.2 0 18.2 4.2 23 11.2z" fill="#F3F1EC"/>
  <circle cx="135" cy="129" r="11" fill="#FF6A1A"/>
</svg>
